<svg width="24" height="24" viewBox="0 0 24 24" fill="none" xmlns="http://www.w3.org/2000/svg">
<path fill-rule="evenodd" clip-rule="evenodd" d="M3 12C3 9.61305 3.94821 7.32386 5.63604 5.63604C7.32387 3.94821 9.61305 3 12 3C14.027 3 15.895 3.67 17.4 4.799L18.6 3.199C16.6973 1.76845 14.3805 0.996521 12 0.999996C5.925 0.999996 1 5.925 1 12C1 18.075 5.925 23 12 23C14.475 23 16.762 22.181 18.6 20.8L17.4 19.201C15.8435 20.3719 13.9477 21.0035 12 21C9.61305 21 7.32387 20.0518 5.63604 18.364C3.94821 16.6761 3 14.3869 3 12ZM21.5 7C21.5 7.26521 21.3946 7.51957 21.2071 7.7071C21.0196 7.89464 20.7652 8 20.5 8C20.2348 8 19.9804 7.89464 19.7929 7.7071C19.6054 7.51957 19.5 7.26521 19.5 7C19.5 6.73478 19.6054 6.48043 19.7929 6.29289C19.9804 6.10535 20.2348 6 20.5 6C20.7652 6 21.0196 6.10535 21.2071 6.29289C21.3946 6.48043 21.5 6.73478 21.5 7ZM20 10.25C20 10.5152 19.8946 10.7696 19.7071 10.9571C19.5196 11.1446 19.2652 11.25 19 11.25C18.7348 11.25 18.4804 11.1446 18.2929 10.9571C18.1054 10.7696 18 10.5152 18 10.25C18 9.98478 18.1054 9.73043 18.2929 9.54289C18.4804 9.35535 18.7348 9.25 19 9.25C19.2652 9.25 19.5196 9.35535 19.7071 9.54289C19.8946 9.73043 20 9.98478 20 10.25ZM17 12C17 12.2652 16.8946 12.5196 16.7071 12.7071C16.5196 12.8946 16.2652 13 16 13C15.7348 13 15.4804 12.8946 15.2929 12.7071C15.1054 12.5196 15 12.2652 15 12C15 11.7348 15.1054 11.4804 15.2929 11.2929C15.4804 11.1054 15.7348 11 16 11C16.2652 11 16.5196 11.1054 16.7071 11.2929C16.8946 11.4804 17 11.7348 17 12ZM20 13.75C20 14.0152 19.8946 14.2696 19.7071 14.4571C19.5196 14.6446 19.2652 14.75 19 14.75C18.7348 14.75 18.4804 14.6446 18.2929 14.4571C18.1054 14.2696 18 14.0152 18 13.75C18 13.4848 18.1054 13.2304 18.2929 13.0429C18.4804 12.8554 18.7348 12.75 19 12.75C19.2652 12.75 19.5196 12.8554 19.7071 13.0429C19.8946 13.2304 20 13.4848 20 13.75ZM22 14.75C22.2652 14.75 22.5196 14.6446 22.7071 14.4571C22.8946 14.2696 23 14.0152 23 13.75C23 13.4848 22.8946 13.2304 22.7071 13.0429C22.5196 12.8554 22.2652 12.75 22 12.75C21.7348 12.75 21.4804 12.8554 21.2929 13.0429C21.1054 13.2304 21 13.4848 21 13.75C21 14.0152 21.1054 14.2696 21.2929 14.4571C21.4804 14.6446 21.7348 14.75 22 14.75ZM22 11.25C22.2652 11.25 22.5196 11.1446 22.7071 10.9571C22.8946 10.7696 23 10.5152 23 10.25C23 9.98478 22.8946 9.73043 22.7071 9.54289C22.5196 9.35535 22.2652 9.25 22 9.25C21.7348 9.25 21.4804 9.35535 21.2929 9.54289C21.1054 9.73043 21 9.98478 21 10.25C21 10.5152 21.1054 10.7696 21.2929 10.9571C21.4804 11.1446 21.7348 11.25 22 11.25ZM20.5 18C20.7652 18 21.0196 17.8946 21.2071 17.7071C21.3946 17.5196 21.5 17.2652 21.5 17C21.5 16.7348 21.3946 16.4804 21.2071 16.2929C21.0196 16.1054 20.7652 16 20.5 16C20.2348 16 19.9804 16.1054 19.7929 16.2929C19.6054 16.4804 19.5 16.7348 19.5 17C19.5 17.2652 19.6054 17.5196 19.7929 17.7071C19.9804 17.8946 20.2348 18 20.5 18ZM14 12C14 12.663 13.7366 13.2989 13.2678 13.7678C12.7989 14.2366 12.163 14.5 11.5 14.5C10.837 14.5 10.2011 14.2366 9.73223 13.7678C9.26339 13.2989 9 12.663 9 12C9 11.337 9.26339 10.7011 9.73223 10.2322C10.2011 9.76339 10.837 9.5 11.5 9.5C12.163 9.5 12.7989 9.76339 13.2678 10.2322C13.7366 10.7011 14 11.337 14 12Z" fill="black"/>
</svg>
