<svg width="24" height="24" viewBox="0 0 24 24" fill="none" xmlns="http://www.w3.org/2000/svg">
<path fill-rule="evenodd" clip-rule="evenodd" d="M5 1C3.93913 1 2.92172 1.42143 2.17157 2.17157C1.42143 2.92172 1 3.93913 1 5V19C1 20.0609 1.42143 21.0783 2.17157 21.8284C2.92172 22.5786 3.93913 23 5 23H19C20.0609 23 21.0783 22.5786 21.8284 21.8284C22.5786 21.0783 23 20.0609 23 19V5C23 3.93913 22.5786 2.92172 21.8284 2.17157C21.0783 1.42143 20.0609 1 19 1H5ZM12.136 5.478C11.1023 5.47779 10.0834 5.72323 9.16323 6.1941C8.24304 6.66497 7.44792 7.34778 6.84342 8.18626C6.23892 9.02473 5.84234 9.99487 5.68636 11.0167C5.53038 12.0385 5.61948 13.0828 5.9463 14.0634C6.27312 15.0441 6.82832 15.933 7.56612 16.657C8.30393 17.3809 9.20322 17.9192 10.1899 18.2273C11.1765 18.5355 12.2223 18.6048 13.241 18.4295C14.2597 18.2542 15.2221 17.8393 16.049 17.219L16.95 18.419C15.758 19.3129 14.3407 19.8573 12.8567 19.9911C11.3728 20.1249 9.88091 19.8428 8.54826 19.1765C7.21562 18.5101 6.09485 17.4858 5.31154 16.2184C4.52823 14.951 4.11333 13.4905 4.11333 12.0005C4.11333 10.5105 4.52823 9.05003 5.31154 7.78259C6.09485 6.51516 7.21562 5.49089 8.54826 4.82455C9.88091 4.15821 11.3728 3.87612 12.8567 4.00991C14.3407 4.14369 15.758 4.68805 16.95 5.582L16.05 6.782C14.9219 5.9332 13.5478 5.47539 12.136 5.478ZM18.318 9.091C18.5108 9.091 18.6957 9.01441 18.8321 8.87807C18.9684 8.74173 19.045 8.55681 19.045 8.364C19.045 8.17119 18.9684 7.98627 18.8321 7.84993C18.6957 7.71359 18.5108 7.637 18.318 7.637C18.1252 7.637 17.9403 7.71359 17.8039 7.84993C17.6676 7.98627 17.591 8.17119 17.591 8.364C17.591 8.55681 17.6676 8.74173 17.8039 8.87807C17.9403 9.01441 18.1252 9.091 18.318 9.091ZM17.228 11.455C17.4209 11.455 17.606 11.3784 17.7424 11.2419C17.8789 11.1055 17.9555 10.9204 17.9555 10.7275C17.9555 10.5346 17.8789 10.3495 17.7424 10.2131C17.606 10.0766 17.4209 10 17.228 10C17.0351 10 16.85 10.0766 16.7136 10.2131C16.5771 10.3495 16.5005 10.5346 16.5005 10.7275C16.5005 10.9204 16.5771 11.1055 16.7136 11.2419C16.85 11.3784 17.0351 11.455 17.228 11.455ZM15.045 12.727C15.2378 12.727 15.4227 12.6504 15.5591 12.5141C15.6954 12.3777 15.772 12.1928 15.772 12C15.772 11.8072 15.6954 11.6223 15.5591 11.4859C15.4227 11.3496 15.2378 11.273 15.045 11.273C14.8522 11.273 14.6673 11.3496 14.5309 11.4859C14.3946 11.6223 14.318 11.8072 14.318 12C14.318 12.1928 14.3946 12.3777 14.5309 12.5141C14.6673 12.6504 14.8522 12.727 15.045 12.727ZM17.227 14C17.4198 14 17.6047 13.9234 17.7411 13.7871C17.8774 13.6507 17.954 13.4658 17.954 13.273C17.954 13.0802 17.8774 12.8953 17.7411 12.7589C17.6047 12.6226 17.4198 12.546 17.227 12.546C17.0342 12.546 16.8493 12.6226 16.7129 12.7589C16.5766 12.8953 16.5 13.0802 16.5 13.273C16.5 13.4658 16.5766 13.6507 16.7129 13.7871C16.8493 13.9234 17.0342 14 17.227 14ZM20.137 13.273C20.137 13.4659 20.0604 13.651 19.9239 13.7874C19.7875 13.9239 19.6024 14.0005 19.4095 14.0005C19.2166 14.0005 19.0315 13.9239 18.8951 13.7874C18.7586 13.651 18.682 13.4659 18.682 13.273C18.682 13.0802 18.7586 12.8953 18.8949 12.7589C19.0313 12.6226 19.2162 12.546 19.409 12.546C19.6018 12.546 19.7867 12.6226 19.9231 12.7589C20.0594 12.8953 20.137 13.0802 20.137 13.273ZM20.137 10.727C20.137 10.9199 20.0604 11.105 19.9239 11.2414C19.7875 11.3779 19.6024 11.4545 19.4095 11.4545C19.2166 11.4545 19.0315 11.3779 18.8951 11.2414C18.7586 11.105 18.682 10.9199 18.682 10.727C18.682 10.5342 18.7586 10.3493 18.8949 10.2129C19.0313 10.0766 19.2162 10 19.409 10C19.6018 10 19.7867 10.0766 19.9231 10.2129C20.0594 10.3493 20.137 10.5342 20.137 10.727ZM19.045 15.637C19.045 15.8298 18.9684 16.0147 18.8321 16.1511C18.6957 16.2874 18.5108 16.364 18.318 16.364C18.1252 16.364 17.9403 16.2874 17.8039 16.1511C17.6676 16.0147 17.591 15.8298 17.591 15.637C17.591 15.4442 17.6676 15.2593 17.8039 15.1229C17.9403 14.9866 18.1252 14.91 18.318 14.91C18.5108 14.91 18.6957 14.9866 18.8321 15.1229C18.9684 15.2593 19.045 15.4442 19.045 15.637ZM11.773 13.818C12.0117 13.818 12.2481 13.771 12.4687 13.6796C12.6893 13.5883 12.8897 13.4543 13.0585 13.2855C13.2273 13.1167 13.3612 12.9163 13.4526 12.6957C13.544 12.4751 13.591 12.2387 13.591 12C13.591 11.7613 13.544 11.5249 13.4526 11.3043C13.3612 11.0837 13.2273 10.8833 13.0585 10.7145C12.8897 10.5457 12.6893 10.4117 12.4687 10.3204C12.2481 10.229 12.0117 10.182 11.773 10.182C11.2908 10.182 10.8284 10.3735 10.4875 10.7145C10.1465 11.0554 9.955 11.5178 9.955 12C9.955 12.4822 10.1465 12.9446 10.4875 13.2855C10.8284 13.6265 11.2908 13.818 11.773 13.818Z" fill="black"/>
</svg>
